<svg xmlns="http://www.w3.org/2000/svg" viewBox="0 0 512 512" width="512" height="512">
  <rect width="512" height="512" rx="0" fill="#0D0D0B"/>

  <defs>
    <linearGradient id="bgGrad" x1="0%" y1="0%" x2="135%" y2="135%">
      <stop offset="0%" stop-color="#2A2A26" />
      <stop offset="100%" stop-color="#0D0D0B" />
    </linearGradient>

    <linearGradient id="amberGrad" x1="0%" y1="0%" x2="100%" y2="100%">
      <stop offset="0%" stop-color="#FFC552" />
      <stop offset="100%" stop-color="#D4931C" />
    </linearGradient>

    <filter id="glow">
      <feGaussianBlur stdDeviation="16" result="coloredBlur"/>
      <feMerge>
        <feMergeNode in="coloredBlur"/>
        <feMergeNode in="SourceGraphic"/>
      </feMerge>
    </filter>
  </defs>

  <rect x="20" y="20" width="472" height="472" rx="96" fill="url(#bgGrad)"/>
  <rect x="20" y="20" width="472" height="472" rx="96" fill="none" stroke="#ffffff" stroke-opacity="0.08" stroke-width="4"/>

  <rect x="52" y="168" width="92" height="176" rx="24" fill="#1A1A17" stroke="#ffffff" stroke-opacity="0.05" stroke-width="4" opacity="0.6"/>
  <rect x="368" y="168" width="92" height="176" rx="24" fill="#1A1A17" stroke="#ffffff" stroke-opacity="0.05" stroke-width="4" opacity="0.6"/>

  <rect x="164" y="124" width="184" height="264" rx="32" fill="none" stroke="#E8A830" stroke-width="12" opacity="0.3" filter="url(#glow)"/>
  <rect x="164" y="124" width="184" height="264" rx="32" fill="#1E1E1B" stroke="url(#amberGrad)" stroke-width="6" />

  <circle cx="308" cy="160" r="12" fill="#E86060" />
  <path d="M256 186 L266 230 L310 240 L266 250 L256 294 L246 250 L202 240 L246 230 Z" fill="#E6E4DD"/>
  <rect x="226" y="330" width="60" height="8" rx="4" fill="#E8A830" opacity="0.8" />
</svg>
